<svg width="48" height="48" viewBox="0 0 48 48" fill="none" xmlns="http://www.w3.org/2000/svg">
<path d="M2 24C2 11.85 11.85 2 24 2C36.15 2 46 11.85 46 24C46 36.15 36.15 46 24 46C11.85 46 2 36.15 2 24ZM24 5C18.9609 5 14.1282 7.00178 10.565 10.565C7.00178 14.1282 5 18.9609 5 24C5 29.0391 7.00178 33.8718 10.565 37.435C14.1282 40.9982 18.9609 43 24 43C29.0391 43 33.8718 40.9982 37.435 37.435C40.9982 33.8718 43 29.0391 43 24C43 18.9609 40.9982 14.1282 37.435 10.565C33.8718 7.00178 29.0391 5 24 5Z" fill="white"/>
<path d="M19 31.168V16.832C19.0003 16.6526 19.0488 16.4766 19.1405 16.3224C19.2322 16.1683 19.3637 16.0416 19.5211 15.9557C19.6786 15.8698 19.8563 15.8279 20.0355 15.8342C20.2148 15.8406 20.389 15.8951 20.54 15.992L31.692 23.158C31.8332 23.2484 31.9494 23.373 32.0299 23.5201C32.1103 23.6672 32.1525 23.8322 32.1525 24C32.1525 24.1677 32.1103 24.3327 32.0299 24.4798C31.9494 24.6269 31.8332 24.7515 31.692 24.842L20.54 32.01C20.389 32.1068 20.2148 32.1613 20.0355 32.1677C19.8563 32.174 19.6786 32.1321 19.5211 32.0462C19.3637 31.9603 19.2322 31.8336 19.1405 31.6795C19.0488 31.5253 19.0003 31.3493 19 31.17V31.168Z" fill="white"/>
</svg>
