<svg width="52" height="52" viewBox="0 0 52 52" fill="none" xmlns="http://www.w3.org/2000/svg">
<g clip-path="url(#clip0_776_2829)">
<path d="M1.10961 25.6888C1.10839 30.0578 2.25889 34.3238 4.44655 38.084L0.900391 50.9312L14.1506 47.4839C17.8155 49.4635 21.9217 50.5008 26.0944 50.5011H26.1054C39.8803 50.5011 51.0934 39.3789 51.0993 25.7084C51.1019 19.084 48.5044 12.8549 43.785 8.16844C39.0664 3.48239 32.7908 0.900332 26.1043 0.897308C12.3278 0.897308 1.1155 12.0189 1.10981 25.6888" fill="url(#paint0_linear_776_2829)"/>
<path d="M0.217344 25.6807C0.215922 30.207 1.40766 34.6256 3.67331 38.5203L0 51.8281L13.7254 48.2572C17.5071 50.3032 21.765 51.3819 26.0977 51.3835H26.1089C40.378 51.3835 51.9939 39.8612 52 25.7013C52.0024 18.8389 49.3114 12.3859 44.4234 7.53154C39.5348 2.6778 33.0348 0.00282171 26.1089 0C11.8373 0 0.223031 11.5206 0.217344 25.6807ZM8.39109 37.8496L7.87861 37.0423C5.72427 33.6434 4.58717 29.7156 4.5888 25.6824C4.59347 13.9128 14.2468 4.33736 26.117 4.33736C31.8654 4.33978 37.2677 6.56329 41.3311 10.5975C45.3942 14.6322 47.63 19.9954 47.6285 25.6997C47.6233 37.4692 37.9697 47.0459 26.1089 47.0459H26.1003C22.2383 47.0439 18.4507 46.0148 15.1474 44.07L14.3613 43.6074L6.21644 45.7263L8.39109 37.8494V37.8496Z" fill="url(#paint1_linear_776_2829)"/>
<path d="M19.6377 14.9446C19.1531 13.8757 18.643 13.8542 18.1821 13.8354C17.8047 13.8193 17.3733 13.8205 16.9423 13.8205C16.5108 13.8205 15.8098 13.9816 15.2173 14.6235C14.6242 15.266 12.9529 16.8188 12.9529 19.9769C12.9529 23.1352 15.2711 26.1872 15.5943 26.6159C15.9179 27.0438 20.0698 33.7321 26.6453 36.3051C32.1102 38.4433 33.2223 38.0181 34.4084 37.9108C35.5946 37.804 38.236 36.3585 38.7749 34.8596C39.3142 33.3608 39.3142 32.0761 39.1526 31.8077C38.9909 31.5402 38.5594 31.3796 37.9125 31.0587C37.2653 30.7376 34.0848 29.1847 33.4919 28.9705C32.8987 28.7564 32.4675 28.6496 32.0361 29.2923C31.6046 29.9341 30.3658 31.3796 29.9882 31.8077C29.611 32.2368 29.2333 32.2902 28.5866 31.9691C27.9392 31.647 25.8558 30.97 23.384 28.7834C21.4608 27.0819 20.1624 24.9808 19.785 24.338C19.4076 23.6963 19.7446 23.3484 20.069 23.0285C20.3596 22.7409 20.7161 22.279 21.0399 21.9043C21.3625 21.5294 21.4701 21.262 21.6858 20.8339C21.9018 20.4054 21.7937 20.0305 21.6322 19.7094C21.4701 19.3883 20.213 16.2137 19.6377 14.9446Z" fill="white"/>
</g>
<defs>
<linearGradient id="paint0_linear_776_2829" x1="2510.84" y1="5004.29" x2="2510.84" y2="0.897308" gradientUnits="userSpaceOnUse">
<stop stop-color="#1FAF38"/>
<stop offset="1" stop-color="#60D669"/>
</linearGradient>
<linearGradient id="paint1_linear_776_2829" x1="2600" y1="5182.81" x2="2600" y2="0" gradientUnits="userSpaceOnUse">
<stop stop-color="#F9F9F9"/>
<stop offset="1" stop-color="white"/>
</linearGradient>
<clipPath id="clip0_776_2829">
<rect width="52" height="52" fill="white"/>
</clipPath>
</defs>
</svg>
